<mxfile host="app.diagrams.net" agent="Mozilla/5.0 (Windows NT 10.0; Win64; x64) AppleWebKit/537.36 (KHTML, like Gecko) Chrome/136.0.0.0 Safari/537.36" version="27.0.6">
  <diagram name="第 1 页" id="tToKtG4S0vQmfwIz44wp">
    <mxGraphModel dx="461" dy="521" grid="1" gridSize="10" guides="1" tooltips="1" connect="1" arrows="1" fold="1" page="1" pageScale="1" pageWidth="827" pageHeight="1169" math="0" shadow="0">
      <root>
        <mxCell id="0" />
        <mxCell id="1" parent="0" />
        <mxCell id="KBLAQGlcDycz12o_rzFv-1" value="" style="ellipse;html=1;shape=startState;fillColor=#000000;strokeColor=#ff0000;" vertex="1" parent="1">
          <mxGeometry x="370" y="270" width="30" height="30" as="geometry" />
        </mxCell>
        <mxCell id="KBLAQGlcDycz12o_rzFv-2" value="" style="edgeStyle=orthogonalEdgeStyle;html=1;verticalAlign=bottom;endArrow=open;endSize=8;strokeColor=#ff0000;rounded=0;" edge="1" source="KBLAQGlcDycz12o_rzFv-1" parent="1">
          <mxGeometry relative="1" as="geometry">
            <mxPoint x="385" y="360" as="targetPoint" />
          </mxGeometry>
        </mxCell>
        <mxCell id="KBLAQGlcDycz12o_rzFv-3" value="閒置" style="rounded=1;whiteSpace=wrap;html=1;" vertex="1" parent="1">
          <mxGeometry x="340" y="360" width="105" height="60" as="geometry" />
        </mxCell>
        <mxCell id="KBLAQGlcDycz12o_rzFv-14" style="edgeStyle=orthogonalEdgeStyle;rounded=0;orthogonalLoop=1;jettySize=auto;html=1;entryX=1;entryY=0.5;entryDx=0;entryDy=0;" edge="1" parent="1" source="KBLAQGlcDycz12o_rzFv-4" target="KBLAQGlcDycz12o_rzFv-10">
          <mxGeometry relative="1" as="geometry">
            <Array as="points">
              <mxPoint x="680" y="690" />
            </Array>
          </mxGeometry>
        </mxCell>
        <mxCell id="KBLAQGlcDycz12o_rzFv-4" value="編輯" style="swimlane;fontStyle=0;childLayout=stackLayout;horizontal=1;startSize=26;fillColor=none;horizontalStack=0;resizeParent=1;resizeParentMax=0;resizeLast=0;collapsible=1;marginBottom=0;whiteSpace=wrap;html=1;" vertex="1" parent="1">
          <mxGeometry x="610" y="460" width="140" height="140" as="geometry" />
        </mxCell>
        <mxCell id="KBLAQGlcDycz12o_rzFv-5" value="+ 關鍵字搜尋" style="text;strokeColor=none;fillColor=none;align=left;verticalAlign=top;spacingLeft=4;spacingRight=4;overflow=hidden;rotatable=0;points=[[0,0.5],[1,0.5]];portConstraint=eastwest;whiteSpace=wrap;html=1;" vertex="1" parent="KBLAQGlcDycz12o_rzFv-4">
          <mxGeometry y="26" width="140" height="26" as="geometry" />
        </mxCell>
        <mxCell id="KBLAQGlcDycz12o_rzFv-6" value="+ 篩選" style="text;strokeColor=none;fillColor=none;align=left;verticalAlign=top;spacingLeft=4;spacingRight=4;overflow=hidden;rotatable=0;points=[[0,0.5],[1,0.5]];portConstraint=eastwest;whiteSpace=wrap;html=1;" vertex="1" parent="KBLAQGlcDycz12o_rzFv-4">
          <mxGeometry y="52" width="140" height="88" as="geometry" />
        </mxCell>
        <mxCell id="KBLAQGlcDycz12o_rzFv-9" style="edgeStyle=orthogonalEdgeStyle;rounded=0;orthogonalLoop=1;jettySize=auto;html=1;exitX=1;exitY=0.5;exitDx=0;exitDy=0;entryX=0.585;entryY=-0.01;entryDx=0;entryDy=0;entryPerimeter=0;" edge="1" parent="1" source="KBLAQGlcDycz12o_rzFv-3" target="KBLAQGlcDycz12o_rzFv-4">
          <mxGeometry relative="1" as="geometry" />
        </mxCell>
        <mxCell id="KBLAQGlcDycz12o_rzFv-25" style="edgeStyle=orthogonalEdgeStyle;rounded=0;orthogonalLoop=1;jettySize=auto;html=1;entryX=1;entryY=0.5;entryDx=0;entryDy=0;" edge="1" parent="1" source="KBLAQGlcDycz12o_rzFv-10" target="KBLAQGlcDycz12o_rzFv-21">
          <mxGeometry relative="1" as="geometry">
            <Array as="points">
              <mxPoint x="510" y="615" />
            </Array>
          </mxGeometry>
        </mxCell>
        <mxCell id="KBLAQGlcDycz12o_rzFv-10" value="成功送出" style="rounded=1;whiteSpace=wrap;html=1;" vertex="1" parent="1">
          <mxGeometry x="450" y="660" width="120" height="60" as="geometry" />
        </mxCell>
        <mxCell id="KBLAQGlcDycz12o_rzFv-16" value="未送出" style="rounded=1;whiteSpace=wrap;html=1;" vertex="1" parent="1">
          <mxGeometry x="400" y="500" width="120" height="60" as="geometry" />
        </mxCell>
        <mxCell id="KBLAQGlcDycz12o_rzFv-17" value="" style="endArrow=classic;html=1;rounded=0;exitX=-0.026;exitY=0.246;exitDx=0;exitDy=0;exitPerimeter=0;entryX=1.025;entryY=0.395;entryDx=0;entryDy=0;entryPerimeter=0;" edge="1" parent="1" source="KBLAQGlcDycz12o_rzFv-6" target="KBLAQGlcDycz12o_rzFv-16">
          <mxGeometry width="50" height="50" relative="1" as="geometry">
            <mxPoint x="390" y="490" as="sourcePoint" />
            <mxPoint x="440" y="440" as="targetPoint" />
          </mxGeometry>
        </mxCell>
        <mxCell id="KBLAQGlcDycz12o_rzFv-19" value="" style="endArrow=classic;html=1;rounded=0;exitX=0.167;exitY=0;exitDx=0;exitDy=0;exitPerimeter=0;entryX=0.826;entryY=0.987;entryDx=0;entryDy=0;entryPerimeter=0;" edge="1" parent="1" source="KBLAQGlcDycz12o_rzFv-16" target="KBLAQGlcDycz12o_rzFv-3">
          <mxGeometry width="50" height="50" relative="1" as="geometry">
            <mxPoint x="390" y="490" as="sourcePoint" />
            <mxPoint x="440" y="440" as="targetPoint" />
          </mxGeometry>
        </mxCell>
        <mxCell id="KBLAQGlcDycz12o_rzFv-21" value="查無資料" style="rounded=1;whiteSpace=wrap;html=1;" vertex="1" parent="1">
          <mxGeometry x="270" y="585" width="120" height="60" as="geometry" />
        </mxCell>
        <mxCell id="KBLAQGlcDycz12o_rzFv-26" style="edgeStyle=orthogonalEdgeStyle;rounded=0;orthogonalLoop=1;jettySize=auto;html=1;entryX=0;entryY=0.5;entryDx=0;entryDy=0;exitX=0.429;exitY=0;exitDx=0;exitDy=0;exitPerimeter=0;" edge="1" parent="1" source="KBLAQGlcDycz12o_rzFv-31" target="KBLAQGlcDycz12o_rzFv-3">
          <mxGeometry relative="1" as="geometry">
            <Array as="points">
              <mxPoint x="80" y="390" />
            </Array>
          </mxGeometry>
        </mxCell>
        <mxCell id="KBLAQGlcDycz12o_rzFv-22" value="顯示資料" style="rounded=1;whiteSpace=wrap;html=1;" vertex="1" parent="1">
          <mxGeometry x="30" y="652" width="120" height="60" as="geometry" />
        </mxCell>
        <mxCell id="KBLAQGlcDycz12o_rzFv-24" style="edgeStyle=orthogonalEdgeStyle;rounded=0;orthogonalLoop=1;jettySize=auto;html=1;entryX=0.997;entryY=0.636;entryDx=0;entryDy=0;entryPerimeter=0;" edge="1" parent="1" source="KBLAQGlcDycz12o_rzFv-10" target="KBLAQGlcDycz12o_rzFv-22">
          <mxGeometry relative="1" as="geometry" />
        </mxCell>
        <mxCell id="KBLAQGlcDycz12o_rzFv-27" style="edgeStyle=orthogonalEdgeStyle;rounded=0;orthogonalLoop=1;jettySize=auto;html=1;entryX=0.372;entryY=1.061;entryDx=0;entryDy=0;entryPerimeter=0;" edge="1" parent="1" source="KBLAQGlcDycz12o_rzFv-21" target="KBLAQGlcDycz12o_rzFv-3">
          <mxGeometry relative="1" as="geometry" />
        </mxCell>
        <mxCell id="KBLAQGlcDycz12o_rzFv-28" value="搜尋" style="shape=note;whiteSpace=wrap;html=1;backgroundOutline=1;darkOpacity=0.05;size=20;" vertex="1" parent="1">
          <mxGeometry x="470" y="255" width="80" height="60" as="geometry" />
        </mxCell>
        <mxCell id="KBLAQGlcDycz12o_rzFv-29" value="資料遺失" style="text;html=1;align=center;verticalAlign=middle;whiteSpace=wrap;rounded=0;" vertex="1" parent="1">
          <mxGeometry x="420" y="470" width="60" height="30" as="geometry" />
        </mxCell>
        <mxCell id="KBLAQGlcDycz12o_rzFv-30" value="" style="endArrow=none;dashed=1;html=1;dashPattern=1 3;strokeWidth=2;rounded=0;entryX=0;entryY=0.5;entryDx=0;entryDy=0;entryPerimeter=0;exitX=1;exitY=0.5;exitDx=0;exitDy=0;" edge="1" parent="1" source="KBLAQGlcDycz12o_rzFv-1" target="KBLAQGlcDycz12o_rzFv-28">
          <mxGeometry width="50" height="50" relative="1" as="geometry">
            <mxPoint x="390" y="490" as="sourcePoint" />
            <mxPoint x="440" y="440" as="targetPoint" />
          </mxGeometry>
        </mxCell>
        <mxCell id="KBLAQGlcDycz12o_rzFv-31" value="編輯" style="swimlane;fontStyle=0;childLayout=stackLayout;horizontal=1;startSize=26;fillColor=none;horizontalStack=0;resizeParent=1;resizeParentMax=0;resizeLast=0;collapsible=1;marginBottom=0;whiteSpace=wrap;html=1;" vertex="1" parent="1">
          <mxGeometry x="20" y="460" width="140" height="140" as="geometry" />
        </mxCell>
        <mxCell id="KBLAQGlcDycz12o_rzFv-32" value="+ 加入收藏" style="text;strokeColor=none;fillColor=none;align=left;verticalAlign=top;spacingLeft=4;spacingRight=4;overflow=hidden;rotatable=0;points=[[0,0.5],[1,0.5]];portConstraint=eastwest;whiteSpace=wrap;html=1;" vertex="1" parent="KBLAQGlcDycz12o_rzFv-31">
          <mxGeometry y="26" width="140" height="26" as="geometry" />
        </mxCell>
        <mxCell id="KBLAQGlcDycz12o_rzFv-33" value="+ 加入行程" style="text;strokeColor=none;fillColor=none;align=left;verticalAlign=top;spacingLeft=4;spacingRight=4;overflow=hidden;rotatable=0;points=[[0,0.5],[1,0.5]];portConstraint=eastwest;whiteSpace=wrap;html=1;" vertex="1" parent="KBLAQGlcDycz12o_rzFv-31">
          <mxGeometry y="52" width="140" height="88" as="geometry" />
        </mxCell>
        <mxCell id="KBLAQGlcDycz12o_rzFv-36" value="" style="endArrow=classic;html=1;rounded=0;exitX=0.423;exitY=0.01;exitDx=0;exitDy=0;exitPerimeter=0;entryX=0.442;entryY=1.017;entryDx=0;entryDy=0;entryPerimeter=0;" edge="1" parent="1" source="KBLAQGlcDycz12o_rzFv-22" target="KBLAQGlcDycz12o_rzFv-33">
          <mxGeometry width="50" height="50" relative="1" as="geometry">
            <mxPoint x="340" y="680" as="sourcePoint" />
            <mxPoint x="390" y="630" as="targetPoint" />
          </mxGeometry>
        </mxCell>
        <mxCell id="KBLAQGlcDycz12o_rzFv-40" value="" style="endArrow=classic;html=1;rounded=0;exitX=0.998;exitY=0.346;exitDx=0;exitDy=0;exitPerimeter=0;entryX=0;entryY=0.667;entryDx=0;entryDy=0;entryPerimeter=0;" edge="1" parent="1" source="KBLAQGlcDycz12o_rzFv-22" target="KBLAQGlcDycz12o_rzFv-3">
          <mxGeometry relative="1" as="geometry">
            <mxPoint x="210" y="440" as="sourcePoint" />
            <mxPoint x="310" y="440" as="targetPoint" />
            <Array as="points">
              <mxPoint x="260" y="673" />
              <mxPoint x="260" y="400" />
            </Array>
          </mxGeometry>
        </mxCell>
        <mxCell id="KBLAQGlcDycz12o_rzFv-41" value="不進行任何動作" style="edgeLabel;resizable=0;html=1;;align=center;verticalAlign=middle;" connectable="0" vertex="1" parent="KBLAQGlcDycz12o_rzFv-40">
          <mxGeometry relative="1" as="geometry" />
        </mxCell>
      </root>
    </mxGraphModel>
  </diagram>
</mxfile>
